<mxfile host="65bd71144e">
    <diagram id="HpSPvzOPFCZqaVP3G75O" name="Page-1">
        <mxGraphModel dx="3298" dy="1203" grid="1" gridSize="10" guides="1" tooltips="1" connect="1" arrows="1" fold="1" page="1" pageScale="1" pageWidth="1600" pageHeight="900" math="0" shadow="0">
            <root>
                <mxCell id="0"/>
                <mxCell id="1" parent="0"/>
                <mxCell id="11" value="" style="group;glass=0;fillColor=#F7A1A1;strokeColor=#b85450;container=0;" parent="1" vertex="1" connectable="0">
                    <mxGeometry x="-70" width="1600" height="900" as="geometry"/>
                </mxCell>
                <mxCell id="2" value="" style="rounded=0;whiteSpace=wrap;html=1;" parent="1" vertex="1">
                    <mxGeometry x="-70" width="1600" height="900" as="geometry"/>
                </mxCell>
                <mxCell id="3" value="" style="rounded=0;whiteSpace=wrap;html=1;fillColor=#784646;fontColor=#ffffff;strokeColor=#B20000;" parent="1" vertex="1">
                    <mxGeometry x="-70" width="1600" height="30" as="geometry"/>
                </mxCell>
                <mxCell id="4" value="" style="shape=internalStorage;whiteSpace=wrap;html=1;backgroundOutline=1;fillColor=#525252;" parent="1" vertex="1">
                    <mxGeometry x="-70" y="30" width="70" height="870" as="geometry"/>
                </mxCell>
                <mxCell id="5" value="" style="shape=internalStorage;whiteSpace=wrap;html=1;backgroundOutline=1;fillColor=#784646;" parent="1" vertex="1">
                    <mxGeometry y="710" width="770" height="190" as="geometry"/>
                </mxCell>
                <mxCell id="6" value="" style="shape=internalStorage;whiteSpace=wrap;html=1;backgroundOutline=1;fillColor=#525252;" parent="1" vertex="1">
                    <mxGeometry x="770" y="710" width="760" height="190" as="geometry"/>
                </mxCell>
                <mxCell id="18" value="&lt;font face=&quot;Comfortaa&quot;&gt;&lt;span style=&quot;font-size: 12px&quot;&gt;Menu Selection&lt;/span&gt;&lt;/font&gt;" style="text;strokeColor=none;fillColor=none;html=1;fontSize=24;fontStyle=1;verticalAlign=middle;align=center;glass=0;" parent="1" vertex="1">
                    <mxGeometry x="-20" y="5" width="170" height="20" as="geometry"/>
                </mxCell>
                <mxCell id="19" value="Object Properties" style="text;strokeColor=none;fillColor=none;html=1;fontSize=24;fontStyle=1;verticalAlign=middle;align=center;glass=0;fontFamily=Comfortaa;fontSource=https%3A%2F%2Ffonts.googleapis.com%2Fcss%3Ffamily%3DComfortaa;" parent="1" vertex="1">
                    <mxGeometry x="1040" y="755" width="180" height="130" as="geometry"/>
                </mxCell>
                <mxCell id="20" value="Tool bar" style="text;strokeColor=none;fillColor=none;html=1;fontSize=24;fontStyle=1;verticalAlign=middle;align=center;glass=0;fontFamily=Comfortaa;fontSource=https%3A%2F%2Ffonts.googleapis.com%2Fcss%3Ffamily%3DComfortaa;rotation=-60;" parent="1" vertex="1">
                    <mxGeometry x="-80" y="280" width="100" height="40" as="geometry"/>
                </mxCell>
                <mxCell id="21" value="Timeline" style="text;strokeColor=none;fillColor=none;html=1;fontSize=24;fontStyle=1;verticalAlign=middle;align=center;glass=0;fontFamily=Comfortaa;fontSource=https%3A%2F%2Ffonts.googleapis.com%2Fcss%3Ffamily%3DComfortaa;" parent="1" vertex="1">
                    <mxGeometry x="360" y="800" width="100" height="40" as="geometry"/>
                </mxCell>
                <mxCell id="22" style="edgeStyle=none;html=1;exitX=1;exitY=0.5;exitDx=0;exitDy=0;fontFamily=Comfortaa;fontSource=https%3A%2F%2Ffonts.googleapis.com%2Fcss%3Ffamily%3DComfortaa;fontSize=12;" parent="1" source="5" target="5" edge="1">
                    <mxGeometry relative="1" as="geometry"/>
                </mxCell>
                <mxCell id="10" value="" style="endArrow=none;html=1;" parent="1" edge="1">
                    <mxGeometry width="50" height="50" relative="1" as="geometry">
                        <mxPoint x="990" y="220" as="sourcePoint"/>
                        <mxPoint x="990" y="220" as="targetPoint"/>
                        <Array as="points">
                            <mxPoint x="1030" y="300"/>
                            <mxPoint x="970" y="360"/>
                            <mxPoint x="900" y="400"/>
                            <mxPoint x="840" y="410"/>
                            <mxPoint x="700" y="390"/>
                            <mxPoint x="610" y="460"/>
                            <mxPoint x="570" y="390"/>
                            <mxPoint x="480" y="340"/>
                            <mxPoint x="530" y="260"/>
                            <mxPoint x="600" y="90"/>
                            <mxPoint x="770" y="70"/>
                            <mxPoint x="880" y="100"/>
                            <mxPoint x="980" y="100"/>
                        </Array>
                    </mxGeometry>
                </mxCell>
            </root>
        </mxGraphModel>
    </diagram>
</mxfile>